<svg version="1.2" xmlns="http://www.w3.org/2000/svg" viewBox="0 0 87 66" width="87" height="66"><style>.a{fill:#fff}</style><path class="a" d="m15.5 2h-2.1c-2.5 0-4.6 1.9-4.8 4.3h11.7c-0.2-2.4-2.3-4.3-4.8-4.3z"/><path fill-rule="evenodd" class="a" d="m86.9 16.1v42.5c0 3.7-3 6.7-6.7 6.7h-73.4c-3.7 0-6.7-3-6.7-6.7v-42.5c0-3.7 3-6.7 6.7-6.7h21.4v-3.5c0-2.8 2.2-5 5-5h20.6c2.8 0 5 2.2 5 5v3.5h21.4c3.7 0 6.7 3 6.7 6.7zm-23.3 20.9c0-11.1-9-20.1-20-20.1-11.1 0-20.1 9-20.1 20.1 0 11 9 20 20.1 20 11 0 20-9 20-20zm18.7-16.9c0-2.4-2-4.3-4.3-4.3h-12.1c-2.4 0-4.3 1.9-4.3 4.3 0 2.3 1.9 4.3 4.3 4.3h12.1c2.3 0 4.3-2 4.3-4.3z"/><path class="a" d="m43.6 23.2c-7.6 0-13.8 6.2-13.8 13.8 0 7.6 6.2 13.7 13.8 13.7 7.5 0 13.7-6.1 13.7-13.7 0-7.6-6.2-13.8-13.7-13.8z"/></svg>