<?xml version="1.0" encoding="UTF-8"?>
<svg id="Layer_1" xmlns="http://www.w3.org/2000/svg" viewBox="0 0 1024.14 96.18">
  <defs>
    <style>
      .cls-1 {
        fill: #fff;
      }

      .cls-2 {
        fill: #0e3050;
      }
    </style>
  </defs>
  <path class="cls-2" d="M66.43,92.1c-7.99,0-28.37-2.06-44.83-21.12C7.78,54.99,4.72,36.36,4.12,26.68c-.35-5.68,1.53-11.15,5.29-15.41,3.77-4.26,8.96-6.8,14.64-7.15.45-.03.9-.04,1.34-.04,11.21,0,20.53,8.77,21.22,19.97.17,2.72,1.19,12.13,7.21,19.11,4.9,5.68,10.39,6.35,12.53,6.37h132.46s758.5,0,758.5,0h.5c1.64,0,7.39-.46,12.5-6.37,6.03-6.98,7.05-16.39,7.21-19.11.69-11.2,10.01-19.97,21.22-19.97.45,0,.9.01,1.34.04,5.68.35,10.88,2.89,14.64,7.15,3.76,4.26,5.64,9.73,5.29,15.41-.6,9.68-3.67,28.31-17.49,44.31-15.87,18.37-35.01,21.11-45.01,21.11H66.43Z"/>
  <path class="cls-1" d="M998.75,8.15c.36,0,.72.01,1.09.03,4.59.28,8.79,2.34,11.84,5.78,3.04,3.45,4.56,7.87,4.28,12.46-.57,9.17-3.47,26.8-16.5,41.89-14.81,17.14-32.62,19.7-41.92,19.7h-.34s-.03,0-.03,0H66.91c-.16,0-.32,0-.48,0-7.43,0-26.38-1.92-41.74-19.71-13.04-15.09-15.93-32.73-16.5-41.89-.28-4.59,1.24-9.01,4.28-12.46,3.04-3.45,7.25-5.5,11.84-5.78.36-.02.73-.03,1.09-.03,9.06,0,16.59,7.09,17.16,16.15.24,3.9,1.52,13.79,8.2,21.52,5.98,6.93,12.87,7.75,15.56,7.78h.05s.05,0,.05,0h132.23c.08,0,.16,0,.23,0h758.76s.19,0,.19,0c2.08,0,9.34-.56,15.58-7.78,6.68-7.73,7.96-17.63,8.2-21.52.56-9.06,8.1-16.15,17.15-16.15h0M998.75,0c-13.29,0-24.46,10.35-25.29,23.8-.15,2.4-1.04,10.68-6.23,16.69-4.04,4.68-8.39,4.96-9.41,4.96-.03,0-.05,0-.07,0h-.43s-758.61,0-758.61,0c-.02,0-.04,0-.07,0H66.4c-.86,0-5.34-.16-9.49-4.96-5.19-6.01-6.08-14.3-6.23-16.69C49.85,10.35,38.68,0,25.39,0,24.86,0,24.33.02,23.8.05,9.82.91-.82,12.95.05,26.93c.63,10.19,3.87,29.81,18.47,46.72,17.4,20.14,38.73,22.53,47.91,22.53.2,0,.39,0,.57,0h890.14c.13,0,.26,0,.39,0,9.1,0,30.58-2.26,48.09-22.53,14.6-16.91,17.84-36.53,18.47-46.72.87-13.98-9.77-26.02-23.75-26.88C999.8.02,999.27,0,998.75,0h0Z"/>
</svg>