<?xml version="1.0" encoding="UTF-8"?>
<svg id="Layer_1" xmlns="http://www.w3.org/2000/svg" viewBox="0 0 1249.01 165.53">
  <defs>
    <style>
      .cls-1 {
        fill: #fff;
      }

      .cls-2 {
        fill: #0e3050;
      }
    </style>
  </defs>
  <rect class="cls-2" x="0" y="0" width="1249.01" height="165.53" rx="82.77" ry="82.77"/>
  <g>
    <path class="cls-1" d="M61.02,107.54c-.45,0-.9-.45-.9-.9v-42.98c0-.45.45-.9.9-.9h22.91c10.15,0,15.52,5.37,15.52,12.31,0,3.58-1.42,6.42-3.88,8.43v.15c3.51,2.24,5.6,5.82,5.6,10.45,0,8.58-6.27,13.43-17.01,13.43h-23.13ZM70.27,71.28v9.1h12.98c4.48,0,6.04-2.09,6.04-4.48,0-2.54-2.01-4.63-6.79-4.63h-12.24ZM83.1,99.03c5.67,0,7.91-1.79,7.91-5.37,0-3.28-2.54-5.52-8.13-5.52h-12.61v10.89h12.83Z"/>
    <path class="cls-1" d="M155.56,85.15c0,14.03-11.27,23.13-24.7,23.13s-24.7-9.1-24.7-23.13,11.27-23.13,24.7-23.13,24.7,9.33,24.7,23.13ZM116.31,85.15c0,9.03,6.64,14.62,14.55,14.62s14.55-5.6,14.55-14.62-6.64-14.62-14.55-14.62-14.55,5.6-14.55,14.62Z"/>
    <path class="cls-1" d="M158.1,71.28c-.45,0-1.04-.6-1.04-1.04v-6.42c0-.45.6-1.04,1.04-1.04h42.38c.45,0,1.04.6,1.04,1.04v6.42c0,.45-.6,1.04-1.04,1.04h-16.12v35.37c0,.45-.45.9-.9.9h-8.36c-.45,0-.89-.45-.89-.9v-35.37h-16.12Z"/>
    <path class="cls-1" d="M205.56,71.28c-.45,0-1.04-.6-1.04-1.04v-6.42c0-.45.6-1.04,1.04-1.04h42.38c.45,0,1.04.6,1.04,1.04v6.42c0,.45-.6,1.04-1.04,1.04h-16.12v35.37c0,.45-.45.9-.9.9h-8.36c-.45,0-.9-.45-.9-.9v-35.37h-16.12Z"/>
    <path class="cls-1" d="M299.87,85.15c0,14.03-11.27,23.13-24.7,23.13s-24.7-9.1-24.7-23.13,11.27-23.13,24.7-23.13,24.7,9.33,24.7,23.13ZM260.62,85.15c0,9.03,6.64,14.62,14.55,14.62s14.55-5.6,14.55-14.62-6.64-14.62-14.55-14.62-14.55,5.6-14.55,14.62Z"/>
    <path class="cls-1" d="M359.94,62.77c.45,0,.9.45.9.9v42.98c0,.45-.45.9-.9.9h-8.36c-.45,0-.9-.45-.9-.9v-27.38h-.22s-.9,2.24-2.76,4.78l-13.21,18.58-13.28-18.58c-1.79-2.54-2.69-4.78-2.69-4.78h-.22v27.38c0,.45-.45.9-.9.9h-8.36c-.45,0-.9-.45-.9-.9v-42.98c0-.45.45-.9.9-.9h6.57c.52,0,1.04.22,1.42.75l17.39,24.33h.15l17.38-24.33c.37-.52.9-.75,1.42-.75h6.57Z"/>
    <path class="cls-1" d="M434.93,85.15c0,14.03-11.27,23.13-24.7,23.13s-24.7-9.1-24.7-23.13,11.27-23.13,24.7-23.13,24.7,9.33,24.7,23.13ZM395.69,85.15c0,9.03,6.64,14.62,14.55,14.62s14.55-5.6,14.55-14.62-6.64-14.62-14.55-14.62-14.55,5.6-14.55,14.62Z"/>
    <path class="cls-1" d="M444.12,107.54c-.45,0-.9-.45-.9-.9v-42.98c0-.45.45-.9.9-.9h33.58c.45,0,1.04.6,1.04,1.04v6.42c0,.45-.6,1.04-1.04,1.04h-24.33v11.19h21.79c.45,0,1.04.6,1.04,1.04v6.42c0,.45-.6,1.04-1.04,1.04h-21.79v15.67c0,.45-.45.9-.9.9h-8.36Z"/>
    <path class="cls-1" d="M526.2,82.92l20.37,23.35c.3.3.37.45.37.75,0,.22-.15.52-.67.52h-10.75c-.67,0-1.19-.15-1.64-.67l-14.77-17.01-6.57,6.34v10.45c0,.45-.45.9-.9.9h-8.36c-.45,0-.9-.45-.9-.9v-42.98c0-.45.45-.9.9-.9h8.36c.45,0,.9.45.9.9v19.77h.15s1.27-1.42,2.83-2.91l17.31-16.94c.67-.67,1.19-.82,1.94-.82h10.6c.52,0,.67.37.67.52,0,.22-.07.37-.52.82l-19.33,18.8Z"/>
    <path class="cls-1" d="M563.13,88.88v10.15h26.26c.45,0,1.04.6,1.04,1.04v6.42c0,.45-.6,1.04-1.04,1.04h-35.52c-.45,0-.9-.45-.9-.9v-42.98c0-.45.45-.9.9-.9h35.07c.45,0,1.04.6,1.04,1.04v6.42c0,.45-.6,1.04-1.04,1.04h-25.82v9.1h23.58c.45,0,1.04.6,1.04,1.04v6.42c0,.45-.6,1.04-1.04,1.04h-23.58Z"/>
    <path class="cls-1" d="M594.18,64.04c-.3-.45-.37-.67-.37-.82,0-.22.15-.45.45-.45h9.48c.9,0,1.27.15,1.79.9l7.69,10.82c1.64,2.24,3.73,6.04,3.73,6.04h.3s2.01-3.66,3.73-6.04l7.69-10.82c.52-.75.9-.9,1.79-.9h9.48c.3,0,.45.22.45.45,0,.15-.08.37-.37.82l-17.83,25.59v17.01c0,.45-.45.9-.89.9h-8.36c-.45,0-.9-.45-.9-.9v-17.01l-17.83-25.59Z"/>
    <path class="cls-1" d="M660.89,93.66v-6.86h18.65v6.86h-18.65Z"/>
    <path class="cls-1" d="M705.43,107.54c-.45,0-.9-.45-.9-.9v-42.98c0-.45.45-.9.9-.9h22.91c10.15,0,15.52,5.37,15.52,12.31,0,3.58-1.42,6.42-3.88,8.43v.15c3.51,2.24,5.6,5.82,5.6,10.45,0,8.58-6.27,13.43-17.01,13.43h-23.13ZM714.69,71.28v9.1h12.98c4.48,0,6.04-2.09,6.04-4.48,0-2.54-2.01-4.63-6.79-4.63h-12.24ZM727.52,99.03c5.67,0,7.91-1.79,7.91-5.37,0-3.28-2.54-5.52-8.13-5.52h-12.61v10.89h12.83Z"/>
    <path class="cls-1" d="M763.04,99.03h22.09c.45,0,1.04.6,1.04,1.04v6.42c0,.45-.6,1.04-1.04,1.04h-31.34c-.45,0-.9-.45-.9-.9v-42.98c0-.45.45-.9.9-.9h8.36c.45,0,.9.45.9.9v35.37Z"/>
    <path class="cls-1" d="M824.45,99.78h-21.79l-3.21,6.79c-.45.9-.67.97-1.57.97h-8.88c-.45,0-.6-.3-.6-.52s.15-.6.3-.9l21.04-43.35h7.76l21.04,43.35c.15.3.3.67.3.9s-.15.52-.6.52h-8.88c-.9,0-1.12-.07-1.57-.97l-3.36-6.79ZM806.24,91.87h14.77l-4.03-8.28c-1.57-3.21-3.13-7.98-3.13-7.98h-.45s-1.57,4.78-3.13,7.98l-4.03,8.28Z"/>
    <path class="cls-1" d="M845.79,107.54c-.45,0-.9-.45-.9-.9v-42.98c0-.45.45-.9.9-.9h18.88c14.18,0,24.77,8.73,24.77,22.38s-8.95,22.38-24.62,22.38h-19.03ZM855.04,71.28v27.76h9.77c9.48,0,14.48-5.37,14.48-13.88s-6.12-13.88-14.62-13.88h-9.62Z"/>
    <path class="cls-1" d="M907.88,88.88v10.15h26.26c.45,0,1.04.6,1.04,1.04v6.42c0,.45-.6,1.04-1.04,1.04h-35.52c-.45,0-.9-.45-.9-.9v-42.98c0-.45.45-.9.9-.9h35.07c.45,0,1.04.6,1.04,1.04v6.42c0,.45-.6,1.04-1.04,1.04h-25.82v9.1h23.58c.45,0,1.04.6,1.04,1.04v6.42c0,.45-.6,1.04-1.04,1.04h-23.58Z"/>
    <path class="cls-1" d="M960.41,107.54c-.45,0-.9-.45-.9-.9v-42.98c0-.45.45-.9.9-.9h18.88c14.18,0,24.77,8.73,24.77,22.38s-8.95,22.38-24.62,22.38h-19.03ZM969.66,71.28v27.76h9.77c9.48,0,14.48-5.37,14.48-13.88s-6.12-13.88-14.62-13.88h-9.62Z"/>
    <path class="cls-1" d="M1059.43,85.15c0,14.03-11.27,23.13-24.7,23.13s-24.7-9.1-24.7-23.13,11.27-23.13,24.7-23.13,24.7,9.33,24.7,23.13ZM1020.18,85.15c0,9.03,6.64,14.62,14.55,14.62s14.55-5.6,14.55-14.62-6.64-14.62-14.55-14.62-14.55,5.6-14.55,14.62Z"/>
    <path class="cls-1" d="M1116.51,107.54h-6.19l-10.3-24.47c-.52-1.27-1.12-3.13-1.12-3.13h-.15s-.52,1.87-1.04,3.13l-10.37,24.47h-6.19l-19.92-43.43c-.15-.3-.3-.67-.3-.9s.15-.45.6-.45h8.95c.9,0,1.04,0,1.49.97l10.07,21.41c1.12,2.31,2.39,6.49,2.39,6.49h.3s.75-2.83,1.79-5.22l9.92-23.65h4.78l9.92,23.65c1.04,2.46,1.79,5.22,1.79,5.22h.3s1.27-4.18,2.39-6.49l10.07-21.41c.45-.9.6-.97,1.49-.97h8.95c.45,0,.6.22.6.45s-.15.6-.3.9l-19.92,43.43Z"/>
    <path class="cls-1" d="M1181.06,107.54l-22.83-23.28c-2.39-2.39-5.07-5.75-5.07-5.75h-.22v28.13c0,.45-.45.9-.9.9h-8.36c-.45,0-.9-.45-.9-.9v-42.98c0-.45.45-.9.9-.9h6.86l22.61,22.98c2.46,2.46,5.22,6.04,5.22,6.04h.3v-28.13c0-.45.45-.9.9-.9h8.36c.45,0,.89.45.89.9v42.98c0,.45-.45.9-.89.9h-6.87Z"/>
  </g>
</svg>