<?xml version="1.0" encoding="UTF-8"?>
<svg id="Layer_1" xmlns="http://www.w3.org/2000/svg" viewBox="0 0 161.22 161.22">
  <defs>
    <style>
      .cls-1 {
        fill: #fff;
      }

      .cls-2 {
        fill: #02080e;
      }

      .cls-3 {
        stroke-width: 4.75px;
      }

      .cls-3, .cls-4 {
        fill: none;
        stroke: #fff;
        stroke-miterlimit: 10;
      }

      .cls-5 {
        fill: #0e3050;
      }

      .cls-4 {
        stroke-width: 5.98px;
      }
    </style>
  </defs>
  <g>
    <path class="cls-5" d="M50.43,3.54h60.36c25.88,0,46.89,21.01,46.89,46.89v60.36c0,25.88-21.01,46.89-46.89,46.89h-60.36c-25.88,0-46.89-21.01-46.89-46.89v-60.36C3.53,24.55,24.55,3.54,50.43,3.54Z"/>
    <path class="cls-2" d="M110.79,7.07c23.91,0,43.36,19.45,43.36,43.36v60.36c0,23.91-19.45,43.36-43.36,43.36h-60.36c-23.91,0-43.36-19.45-43.36-43.36v-60.36C7.07,26.52,26.52,7.07,50.43,7.07h60.36M110.79,0h-60.36C22.62,0,0,22.62,0,50.43v60.36c0,27.81,22.62,50.43,50.43,50.43h60.36c27.81,0,50.43-22.62,50.43-50.43v-60.36c0-27.81-22.62-50.43-50.43-50.43h0Z"/>
  </g>
  <g>
    <path class="cls-1" d="M105.83,27.19c15.55,0,28.19,12.65,28.19,28.19v50.45c0,15.55-12.65,28.19-28.19,28.19h-50.45c-15.55,0-28.19-12.65-28.19-28.19v-50.45c0-15.55,12.65-28.19,28.19-28.19h50.45M105.83,21.21h-50.45c-18.87,0-34.17,15.3-34.17,34.17v50.45c0,18.87,15.3,34.17,34.17,34.17h50.45c18.87,0,34.17-15.3,34.17-34.17v-50.45c0-18.87-15.3-34.17-34.17-34.17h0Z"/>
    <path class="cls-4" d="M24.88,97.47c8.55-5.38,17.11-10.75,25.66-16.13,8.31,4.89,16.62,9.78,24.93,14.67,10.75-9.78,21.51-19.55,32.26-29.33,9.53,10.02,19.07,20.04,28.6,30.06"/>
    <circle class="cls-3" cx="53.84" cy="53.11" r="11.37"/>
  </g>
</svg>