<?xml version="1.0" encoding="UTF-8"?>
<svg id="Layer_1" xmlns="http://www.w3.org/2000/svg" viewBox="0 0 168.29 168.29">
  <defs>
    <style>
      .cls-1 {
        fill: #fff;
      }

      .cls-2 {
        fill: #0e3050;
        stroke: #02080e;
        stroke-miterlimit: 10;
        stroke-width: 7.07px;
      }
    </style>
  </defs>
  <circle class="cls-2" cx="84.14" cy="84.14" r="80.61"/>
  <path class="cls-1" d="M59.55,63.56c-1.61,0-2.34-.73-2.34-2.19,0-13.72,11.39-22.48,26.56-22.48s27.29,9.05,27.29,23.65c0,9.2-4.23,15.76-14.16,21.31l-2.04,1.17c-2.92,1.75-3.94,3.8-3.94,7.88v5.11c0,.88-1.61,2.48-2.48,2.48h-12.84c-.88,0-2.48-1.61-2.48-2.48v-6.57c0-8.61,2.63-13.28,11.38-18.1l2.92-1.61c3.94-2.19,5.84-4.96,5.84-9.2,0-4.67-3.65-8.47-9.49-8.47-5.4,0-8.76,3.07-8.76,7.3,0,1.61-.73,2.19-2.34,2.19h-13.14ZM82.03,110.12c5.4,0,9.63,4.23,9.63,9.63s-4.23,9.63-9.63,9.63-9.63-4.23-9.63-9.63,4.23-9.63,9.63-9.63Z"/>
</svg>