<?xml version="1.0" encoding="UTF-8"?>
<svg id="Layer_1" xmlns="http://www.w3.org/2000/svg" viewBox="0 0 648.93 168.29">
  <defs>
    <style>
      .cls-1 {
        fill: #fff;
      }

      .cls-2 {
        fill: #0e3050;
        stroke: #02080e;
        stroke-miterlimit: 10;
        stroke-width: 7.07px;
      }
    </style>
  </defs>
  <rect class="cls-2" x="3.54" y="3.54" width="641.86" height="161.22" rx="80.61" ry="80.61"/>
  <g>
    <path class="cls-1" d="M60.28,65.81c-.46,0-1.08-.62-1.08-1.08v-6.62c0-.46.62-1.08,1.08-1.08h43.75c.46,0,1.08.62,1.08,1.08v6.62c0,.46-.62,1.08-1.08,1.08h-16.64v36.51c0,.46-.46.92-.92.92h-8.63c-.46,0-.92-.46-.92-.92v-36.51h-16.64Z"/>
    <path class="cls-1" d="M136.15,95.24h-22.49l-3.31,7.01c-.46.92-.69,1-1.62,1h-9.17c-.46,0-.62-.31-.62-.54s.15-.62.31-.92l21.72-44.75h8.01l21.72,44.75c.15.31.31.69.31.92s-.15.54-.62.54h-9.17c-.92,0-1.16-.08-1.62-1l-3.47-7.01ZM117.35,87.07h15.25l-4.16-8.55c-1.62-3.31-3.24-8.24-3.24-8.24h-.46s-1.62,4.93-3.24,8.24l-4.16,8.55Z"/>
    <path class="cls-1" d="M181.82,77.83l21.03,24.11c.31.31.39.46.39.77,0,.23-.15.54-.69.54h-11.09c-.69,0-1.23-.15-1.7-.69l-15.25-17.56-6.78,6.55v10.78c0,.46-.46.92-.92.92h-8.63c-.46,0-.92-.46-.92-.92v-44.37c0-.46.46-.92.92-.92h8.63c.46,0,.92.46.92.92v20.41h.15s1.31-1.46,2.93-3l17.87-17.48c.69-.69,1.23-.85,2-.85h10.94c.54,0,.69.38.69.54,0,.23-.08.38-.54.85l-19.95,19.41Z"/>
    <path class="cls-1" d="M219.95,83.99v10.47h27.11c.46,0,1.08.62,1.08,1.08v6.62c0,.46-.62,1.08-1.08,1.08h-36.66c-.46,0-.92-.46-.92-.92v-44.37c0-.46.46-.92.92-.92h36.2c.46,0,1.08.62,1.08,1.08v6.62c0,.46-.62,1.08-1.08,1.08h-26.65v9.4h24.34c.46,0,1.08.62,1.08,1.08v6.62c0,.46-.62,1.08-1.08,1.08h-24.34Z"/>
    <path class="cls-1" d="M274.17,103.25c-.46,0-.92-.46-.92-.92v-44.37c0-.46.46-.92.92-.92h19.72c11.17,0,19.18,6.7,19.18,17.33s-8.32,17.02-19.18,17.02h-10.17v10.94c0,.46-.46.92-.92.92h-8.63ZM283.72,65.81v17.25h9.32c6.08,0,9.55-3.54,9.55-8.71s-3.85-8.55-9.55-8.55h-9.32Z"/>
    <path class="cls-1" d="M331.01,102.32c0,.46-.46.92-.92.92h-8.63c-.46,0-.92-.46-.92-.92v-44.37c0-.46.46-.92.92-.92h8.63c.46,0,.92.46.92.92v44.37Z"/>
    <path class="cls-1" d="M378.31,75.67c-.77,0-1.16-.31-1.31-1.23-.77-5.32-5.62-9.4-12.55-9.4-7.93,0-14.4,6.09-14.4,15.1s6.16,15.1,14.4,15.1c7.01,0,11.71-3.47,12.55-8.63.15-1,.54-1.31,1.46-1.31h7.7c.62,0,1.31.38,1.31,1.16,0,9.94-9.32,17.56-23.03,17.56s-24.88-9.63-24.88-23.88,10.94-23.88,24.88-23.88c14.63,0,23.03,9.24,23.03,18.41,0,.54-.38,1-1.23,1h-7.93Z"/>
    <path class="cls-1" d="M390.86,65.81c-.46,0-1.08-.62-1.08-1.08v-6.62c0-.46.62-1.08,1.08-1.08h43.75c.46,0,1.08.62,1.08,1.08v6.62c0,.46-.62,1.08-1.08,1.08h-16.64v36.51c0,.46-.46.92-.92.92h-8.63c-.46,0-.92-.46-.92-.92v-36.51h-16.64Z"/>
    <path class="cls-1" d="M478.05,57.95c0-.46.46-.92.92-.92h8.63c.46,0,.92.46.92.92v23.19c0,14.94-9.4,22.88-23.57,22.88s-23.57-7.93-23.57-22.88v-23.19c0-.46.46-.92.92-.92h8.63c.46,0,.92.46.92.92v23.11c0,9.55,4.7,14.17,13.09,14.17s13.09-4.62,13.09-14.17v-23.11Z"/>
    <path class="cls-1" d="M498.92,57.95c0-.46.46-.92.92-.92h21.41c11.25,0,19.26,6.08,19.26,16.18,0,7.01-4.24,11.71-10.4,13.86v.15s1.39,1.46,2.46,3.08l7.78,11.4c.38.54.46.85.46,1,0,.31-.15.54-.62.54h-10.24c-.39,0-.92-.31-1.23-.77l-9.4-13.71h-9.94v13.56c0,.46-.46.92-.92.92h-8.63c-.46,0-.92-.46-.92-.92v-44.37ZM509.4,65.81v14.63h11.17c5.78,0,9.47-2.7,9.47-7.24s-3.7-7.39-9.47-7.39h-11.17Z"/>
    <path class="cls-1" d="M559.62,83.99v10.47h27.11c.46,0,1.08.62,1.08,1.08v6.62c0,.46-.62,1.08-1.08,1.08h-36.66c-.46,0-.92-.46-.92-.92v-44.37c0-.46.46-.92.92-.92h36.2c.46,0,1.08.62,1.08,1.08v6.62c0,.46-.62,1.08-1.08,1.08h-26.65v9.4h24.34c.46,0,1.08.62,1.08,1.08v6.62c0,.46-.62,1.08-1.08,1.08h-24.34Z"/>
  </g>
</svg>